<?xml version="1.0" encoding="UTF-8"?>
<svg id="Make2D::Visible::Curves" xmlns="http://www.w3.org/2000/svg" viewBox="0 0 1300.8 558.73">
  <defs>
    <style>
      .cls-1 {
        fill: #000;
        font-family: Helvetica, Helvetica;
        font-size: 300px;
      }

      .cls-2 {
        fill: none;
      }

      .cls-2, .cls-3 {
        stroke: #000;
        stroke-miterlimit: 10;
        stroke-width: 12px;
      }

      .cls-3 {
        fill: #3f6;
      }

      .cls-4 {
        letter-spacing: -.07em;
      }
    </style>
  </defs>
  <rect class="cls-3" x="6" y="6" width="500" height="500"/>
  <path class="cls-2" d="M413.85,354.16c-4.05-1.08-7.99-2.42-11.89-3.96-2.98-1.18-5.91-2.48-8.82-3.84-2.51-1.17-4.99-2.39-7.47-3.63-2.39-1.19-4.78-2.4-7.17-3.61-4.99-2.53-9.99-5.05-15.02-7.49-5.52-2.68-11.07-5.28-16.69-7.76-12.49-5.5-25.14-10.34-38.27-14.15-7.25-2.11-14.55-3.87-21.98-5.22-3.92-.72-7.86-1.31-11.82-1.77-4.08-.48-8.17-.81-12.27-.99-4.16-.18-8.3-.18-12.46-.02-2.06.08-4.13.21-6.19.37-2.04.16-4.07.36-6.09.59-7.8.89-15.48,2.29-23.11,4.11-13.71,3.26-27.07,7.82-40.09,13.14-11.41,4.67-22.33,9.84-33.34,15.34-4.85,2.42-9.68,4.9-14.53,7.32-2.47,1.23-4.94,2.45-7.43,3.62-2.88,1.35-5.77,2.65-8.72,3.83-5.41,2.17-10.8,3.91-16.51,5.15-3.21.7-6.44,1.22-9.71,1.54-3.38.34-6.75.46-10.15.37-6.91-.19-13.76-1.31-20.34-3.46-6.57-2.15-12.83-5.31-18.37-9.47-5.45-4.1-10.17-9.16-13.85-14.9-1.84-2.87-3.38-5.86-4.68-9.01-1.31-3.18-2.34-6.41-3.16-9.74-.83-3.36-1.41-6.75-1.81-10.19-.4-3.47-.6-6.94-.63-10.43-.03-3.52.11-7.02.39-10.53.29-3.53.71-7.04,1.27-10.55,2.1-13.31,6.07-26.7,11.06-39.17,2.54-6.35,5.36-12.55,8.49-18.63,3.11-6.05,6.48-11.93,10.13-17.67,3.61-5.66,7.47-11.12,11.61-16.41,4.11-5.24,8.46-10.24,13.07-15.05,9.17-9.56,19.2-18.1,30.04-25.71,5.26-3.69,10.67-7.13,16.23-10.34,5.57-3.22,11.26-6.18,17.08-8.93,5.83-2.75,11.74-5.26,17.75-7.56,6.05-2.31,12.17-4.4,18.36-6.29,3.13-.95,6.27-1.85,9.43-2.7,3.2-.86,6.42-1.67,9.65-2.42,3.29-.77,6.59-1.49,9.91-2.15,3.39-.68,6.79-1.3,10.21-1.87,14.34-2.39,29.07-3.84,43.61-4.17,7.43-.17,14.83-.04,22.25.36,3.66.2,7.32.47,10.97.8,3.59.33,7.18.72,10.75,1.17,3.49.44,6.97.94,10.44,1.49,3.39.54,6.77,1.14,10.14,1.79,6.53,1.26,13,2.72,19.44,4.4,6.25,1.63,12.43,3.44,18.56,5.48,6.06,2.01,12.03,4.22,17.93,6.65,11.74,4.85,23.1,10.55,33.93,17.22,11.28,6.95,21.88,14.89,31.65,23.85,4.9,4.49,9.54,9.2,13.97,14.15,4.46,4.99,8.64,10.17,12.58,15.57,3.99,5.48,7.68,11.11,11.13,16.95,1.74,2.94,3.4,5.91,5,8.93,1.6,3.02,3.13,6.08,4.58,9.17,5.78,12.28,10.56,25.36,13.74,38.58,3.16,13.14,4.96,27.49,3.82,41.09-.28,3.38-.74,6.72-1.42,10.05-.67,3.3-1.53,6.52-2.66,9.7-2.25,6.38-5.35,12.05-9.63,17.31-2.12,2.6-4.42,4.98-6.96,7.18-2.56,2.22-5.26,4.17-8.16,5.92-5.8,3.5-12.18,6.04-18.77,7.61-6.55,1.56-13.29,2.16-20.01,1.91-3.28-.12-6.52-.44-9.76-.95-3.11-.49-6.17-1.14-9.22-1.96Z"/>
  <text class="cls-1" transform="translate(139.33 414.44)"><tspan x="0" y="0">KL</tspan><tspan class="cls-4" x="366.94" y="0">A</tspan><tspan x="544.92" y="0">TCH</tspan></text>
</svg>